<svg width="40" height="40" viewBox="0 0 40 40" fill="none" xmlns="http://www.w3.org/2000/svg">
<path fill-rule="evenodd" clip-rule="evenodd" d="M17.3619 5.1831C15.2875 5.55658 13.0675 6.48784 11.2689 7.73869C10.3657 8.36687 8.00908 10.6294 8.00908 10.8683C8.00908 10.9378 11.2589 10.9839 16.1666 10.9839H24.3242L25.3113 10.0461C26.0347 9.3589 26.3879 9.10833 26.6333 9.10833C26.8863 9.10833 27.1886 9.33764 27.8696 10.0461L28.7712 10.9839H30.3638C31.2458 10.9839 31.9563 10.9327 31.9563 10.8692C31.9563 10.8062 31.5253 10.2975 30.9984 9.73913C28.7196 7.3232 25.7559 5.72987 22.5052 5.17297C21.1358 4.93828 18.6942 4.94315 17.3619 5.1831ZM21.9978 13.9107C21.5791 14.3513 21.1132 14.7733 20.9627 14.8484C20.7738 14.9426 18.3687 14.985 13.2241 14.985H5.75929L5.56721 15.644C5.34629 16.4015 5 18.1437 5 18.497C5 18.7295 5.19158 18.736 12.0401 18.736H19.0801L19.9787 17.7983C20.6881 17.0581 20.953 16.8605 21.2365 16.8605C21.52 16.8605 21.7849 17.0581 22.4943 17.7983L23.3929 18.736H29.1964H35L34.9194 17.9546C34.8751 17.5248 34.7082 16.6948 34.5488 16.1103L34.2586 15.0475L29.6593 14.985L25.0599 14.9225L24.212 14.016C23.1307 12.86 23.0021 12.8539 21.9978 13.9107ZM17.4124 20.9839C17.309 21.0491 16.8518 21.4702 16.3964 21.9197L15.5684 22.7372H10.4096C5.75666 22.7372 5.25076 22.7568 5.25076 22.938C5.25076 23.3184 5.64883 24.6773 6.02522 25.5817L6.40261 26.4882H10.0516H13.7007L14.5428 25.6248C15.0059 25.15 15.5004 24.7248 15.6416 24.6801C15.9874 24.5707 16.3135 24.7639 16.9452 25.4522C17.2367 25.7696 17.585 26.1331 17.7192 26.2598C17.9517 26.4791 18.3351 26.4886 25.7984 26.4578L33.6335 26.4257L33.9399 25.6755C34.3299 24.7211 34.8404 22.9043 34.7454 22.8094C34.7055 22.7697 31.3223 22.7372 27.2272 22.7372H19.7816L18.8741 21.7994C17.9729 20.868 17.7733 20.7566 17.4124 20.9839ZM10.7031 29.1735C10.2229 29.6864 9.76838 30.0442 9.46284 30.1497L8.98051 30.3162L9.71723 30.9767C13.7522 34.5939 19.0617 35.8582 24.1688 34.4179C26.2911 33.8194 29.119 32.1834 30.5086 30.7504L31.0042 30.2393H22.5701C16.6431 30.2393 14.0591 30.1981 13.8768 30.1009C13.7341 30.0247 13.28 29.6027 12.8676 29.1631C11.877 28.1069 11.7005 28.1078 10.7031 29.1735Z" fill="white"/>
</svg>
