<svg width="24" height="24" viewBox="0 0 24 24" fill="none" xmlns="http://www.w3.org/2000/svg">
<path d="M2.45395 7.93955C2.73524 7.65834 3.1167 7.50037 3.51445 7.50037C3.9122 7.50037 4.29366 7.65834 4.57495 7.93955L12 15.3645L19.4249 7.93955C19.7079 7.66631 20.0868 7.51512 20.4801 7.51853C20.8733 7.52195 21.2496 7.67971 21.5277 7.95782C21.8058 8.23593 21.9635 8.61215 21.967 9.00544C21.9704 9.39874 21.8192 9.77764 21.5459 10.0605L13.0604 18.546C12.7792 18.8273 12.3977 18.9852 12 18.9852C11.6022 18.9852 11.2207 18.8273 10.9395 18.546L2.45395 10.0605C2.17274 9.77925 2.01477 9.39779 2.01477 9.00005C2.01477 8.6023 2.17274 8.22084 2.45395 7.93955Z" fill="white" fill-opacity="0.1"/>
</svg>
