<?xml version="1.0" standalone="no"?>
<!DOCTYPE svg PUBLIC "-//W3C//DTD SVG 20010904//EN"
 "http://www.w3.org/TR/2001/REC-SVG-20010904/DTD/svg10.dtd">
<svg version="1.0" xmlns="http://www.w3.org/2000/svg"
 width="1872.000000pt" height="1872.000000pt" viewBox="0 0 1872.000000 1872.000000"
 preserveAspectRatio="xMidYMid meet">
<metadata>
Created by potrace 1.14, written by Peter Selinger 2001-2017
</metadata>
<g transform="translate(0.000000,1872.000000) scale(0.100000,-0.100000)"
fill="#000000" stroke="none">
<path d="M6875 13181 c-94 -58 -166 -169 -219 -339 -41 -131 -57 -251 -63
-469 l-6 -203 -54 0 c-268 0 -507 -120 -636 -318 -41 -62 -37 -67 -66 94 -24
135 -48 341 -56 489 -23 415 -38 461 -187 565 -128 90 -297 143 -495 156 -415
27 -979 -254 -1162 -580 -94 -165 -151 -375 -151 -549 0 -79 6 -116 35 -214
19 -66 37 -126 40 -134 4 -11 -11 -21 -60 -38 -86 -31 -218 -99 -310 -161
l-73 -49 -45 72 c-181 293 -356 668 -476 1019 -84 247 -146 363 -254 475 -110
115 -215 163 -355 163 -169 0 -350 -61 -500 -167 -103 -73 -272 -247 -340
-351 -127 -193 -265 -526 -382 -922 -37 -123 -48 -148 -74 -169 -75 -61 -193
-182 -245 -252 -268 -355 -562 -1349 -695 -2349 -39 -294 -49 -474 -43 -753
10 -421 58 -767 168 -1200 63 -248 114 -388 201 -557 324 -631 729 -920 1288
-920 289 0 517 72 776 245 l99 66 14 -23 c29 -47 138 -144 196 -174 152 -81
324 -110 599 -101 270 9 424 46 651 156 265 129 497 338 710 638 72 102 156
254 190 346 10 26 21 44 25 40 5 -4 56 -102 114 -218 133 -260 244 -429 372
-564 268 -282 564 -411 944 -411 172 0 289 19 437 71 307 109 614 350 858 674
133 178 194 286 244 438 13 37 24 67 26 67 2 0 31 -46 66 -102 345 -565 686
-942 974 -1078 112 -54 203 -70 386 -70 285 0 513 72 772 245 236 156 497 434
650 691 l29 48 42 -80 c245 -469 535 -730 931 -841 93 -26 113 -28 280 -28
161 1 192 4 299 29 452 106 1056 430 1490 799 l78 67 50 -67 c120 -161 316
-368 453 -479 208 -169 473 -297 725 -351 116 -25 560 -24 760 0 430 54 778
146 954 252 135 81 278 195 412 329 157 158 240 271 323 446 53 111 115 304
127 390 l7 51 91 61 c498 334 762 700 861 1192 95 475 17 831 -258 1190 -74
96 -285 310 -600 610 -296 281 -419 433 -947 1171 -389 544 -660 897 -878
1147 -214 244 -436 417 -705 548 -164 79 -281 120 -457 157 -112 24 -147 27
-340 27 -192 1 -224 -1 -295 -21 -365 -100 -569 -355 -606 -757 -11 -116 -7
-451 8 -586 l6 -57 -94 -6 c-52 -3 -132 -17 -179 -31 -47 -13 -87 -23 -89 -21
-2 2 18 125 44 272 26 147 52 315 58 373 15 158 -7 216 -100 261 -43 21 -56
22 -207 18 -354 -9 -515 -4 -604 20 -194 51 -372 127 -839 359 -413 205 -490
235 -588 230 -91 -5 -150 -34 -224 -113 -92 -98 -175 -281 -216 -476 -15 -68
-44 -265 -45 -298 0 -8 -13 -1 -34 17 -50 43 -105 59 -256 71 -141 11 -491 65
-815 125 -298 55 -528 122 -1575 458 -623 200 -762 238 -859 238 -57 0 -84 -5
-106 -19z m245 -208 c107 -28 468 -140 880 -273 566 -182 885 -279 1127 -339
227 -57 837 -160 1083 -182 69 -6 130 -13 136 -14 21 -6 142 -198 179 -285 20
-47 48 -128 62 -180 24 -85 27 -113 27 -260 -1 -283 -76 -601 -209 -875 -102
-211 -136 -230 -405 -229 -91 0 -210 7 -265 14 -141 20 -170 19 -200 -10 -31
-29 -41 -79 -23 -114 15 -30 249 -219 411 -332 239 -169 405 -250 722 -355
122 -41 238 -89 360 -149 451 -221 587 -376 640 -730 47 -310 -26 -633 -201
-893 -125 -183 -328 -403 -483 -521 -164 -126 -358 -221 -548 -268 -120 -30
-405 -33 -497 -5 -269 83 -567 372 -903 877 -49 74 -109 168 -133 208 l-43 73
14 77 c9 50 14 150 14 282 0 191 -2 212 -28 312 -89 345 -201 473 -613 699
-25 13 -35 33 -71 145 -59 183 -224 704 -273 863 -30 96 -49 140 -67 157 l-26
24 19 92 c41 207 14 452 -70 625 -182 377 -491 639 -858 727 l-88 21 0 155 c1
310 61 570 158 672 28 31 20 31 172 -9z m4002 -22 c40 -16 222 -103 403 -193
471 -234 648 -309 862 -365 l108 -28 328 2 328 2 -6 -57 c-4 -31 -20 -136 -37
-232 -16 -96 -47 -281 -69 -410 -80 -479 -105 -825 -96 -1359 8 -493 24 -614
87 -646 49 -25 78 -18 174 44 129 83 371 219 526 296 154 76 139 77 265 -32
143 -124 405 -440 575 -693 286 -426 443 -816 409 -1019 -11 -70 -54 -133
-184 -269 -340 -356 -927 -732 -1408 -900 -300 -106 -502 -132 -704 -93 -252
49 -435 152 -629 354 -106 110 -186 221 -279 385 l-57 103 25 57 c69 158 106
327 114 522 12 305 -64 581 -212 769 -85 108 -269 240 -497 357 l-127 64 -21
69 c-92 309 -161 666 -210 1091 -23 193 -22 246 4 385 9 44 19 145 22 225 8
173 -9 295 -62 459 -33 102 -34 107 -34 275 1 389 92 724 228 836 47 38 80 38
174 1z m-8733 -11 c67 -31 159 -132 213 -235 25 -50 74 -171 108 -269 233
-674 581 -1271 1079 -1851 113 -132 532 -551 696 -696 282 -250 607 -511 910
-733 124 -91 168 -129 197 -171 83 -124 113 -267 105 -505 -6 -175 -19 -248
-67 -391 -77 -229 -248 -480 -481 -703 -279 -267 -594 -403 -984 -422 -278
-14 -515 41 -641 150 l-36 31 134 135 c319 323 482 608 540 945 17 101 19 147
15 295 -7 230 -36 359 -118 526 -86 175 -230 304 -519 464 -115 64 -320 158
-360 167 -59 11 -120 -37 -120 -97 0 -51 26 -75 137 -124 339 -151 573 -314
662 -461 44 -73 96 -228 110 -328 14 -100 14 -283 0 -383 -26 -186 -109 -386
-232 -558 -285 -400 -605 -641 -987 -744 -84 -23 -115 -26 -270 -26 -158 -1
-185 2 -281 26 -318 80 -560 260 -766 568 -67 101 -176 300 -224 412 -73 167
-168 534 -223 858 -53 314 -61 420 -61 815 0 348 2 382 28 580 131 985 400
1933 655 2315 60 90 198 232 286 294 165 118 379 168 495 116z m2865 -10 c135
-34 261 -103 285 -157 6 -14 16 -82 21 -151 32 -420 42 -522 65 -661 74 -449
219 -829 461 -1203 67 -104 84 -118 138 -118 49 0 86 34 93 85 4 36 -1 49 -54
130 -150 228 -283 508 -283 594 1 134 61 284 149 371 92 91 209 136 382 147
217 13 436 -41 618 -154 95 -59 261 -222 328 -323 125 -187 164 -308 164 -500
0 -239 -74 -412 -226 -527 -66 -50 -280 -156 -448 -223 -113 -44 -137 -66
-137 -122 0 -58 92 -137 337 -289 178 -110 305 -178 640 -338 402 -192 589
-299 677 -387 133 -134 206 -356 206 -629 0 -282 -75 -514 -243 -749 -286
-402 -608 -645 -986 -743 -96 -25 -122 -28 -276 -28 -145 1 -184 4 -265 24
-424 105 -681 346 -960 896 l-101 199 20 86 c32 130 42 222 42 375 0 214 -37
380 -115 519 -47 84 -94 136 -174 192 -137 97 -352 261 -532 405 l-185 148
-197 363 c-182 336 -205 384 -303 638 -171 439 -252 658 -337 915 l-81 240 6
105 c12 226 112 454 254 580 114 101 321 214 483 265 184 58 373 67 534 25z
m9541 -30 c364 -77 671 -254 961 -553 209 -215 488 -573 964 -1237 580 -809
683 -931 1145 -1361 385 -358 531 -555 611 -824 22 -74 27 -117 32 -239 14
-429 -127 -812 -409 -1110 -134 -141 -351 -311 -484 -378 -182 -93 -563 -180
-955 -220 -195 -19 -516 -17 -620 5 -245 53 -440 142 -650 298 -105 77 -293
260 -391 379 -117 144 -115 123 -25 226 97 110 158 196 180 252 83 216 -2 552
-251 985 -232 405 -587 850 -841 1057 -43 35 -43 35 -67 160 -81 422 -156 943
-191 1345 -23 261 -24 663 -1 765 56 250 227 415 488 470 77 16 391 4 504 -20z"/>
<path d="M2130 12562 c-24 -24 -29 -39 -35 -107 -11 -118 2 -709 19 -879 58
-561 139 -873 326 -1241 88 -174 193 -337 267 -414 49 -51 54 -53 90 -48 25 4
48 17 66 37 23 26 27 39 27 92 0 72 23 128 74 177 26 25 45 34 90 40 65 9 93
30 102 78 15 79 -44 130 -138 120 -94 -9 -176 -62 -254 -161 l-30 -39 -47 79
c-282 483 -403 1074 -396 1938 l3 298 -32 29 c-44 39 -93 39 -132 1z"/>
<path d="M14715 12611 c-49 -14 -75 -48 -75 -98 0 -81 301 -881 538 -1430 589
-1363 1167 -2338 1683 -2838 63 -61 129 -117 147 -124 39 -16 76 -8 108 24 19
20 24 34 24 78 0 130 79 237 174 237 51 0 100 45 100 92 0 180 -289 123 -409
-81 -16 -28 -33 -51 -36 -51 -7 0 -128 132 -200 220 -210 252 -488 676 -714
1085 -113 206 -447 885 -568 1155 -247 552 -468 1109 -613 1539 -26 79 -55
152 -63 162 -19 23 -68 38 -96 30z"/>
</g>
</svg>
