<svg width="32" height="32" viewBox="0 0 32 32" fill="none" xmlns="http://www.w3.org/2000/svg">
<path d="M21.348 4.66576C21.5225 4.84435 21.6201 5.0841 21.6201 5.33376C21.6201 5.58341 21.5225 5.82316 21.348 6.00176L11.602 15.9998L21.348 25.9958C21.5225 26.1744 21.6201 26.4141 21.6201 26.6638C21.6201 26.9134 21.5225 27.1532 21.348 27.3318C21.2632 27.4188 21.1618 27.4881 21.0499 27.5353C20.9379 27.5826 20.8176 27.6069 20.696 27.6069C20.5745 27.6069 20.4541 27.5826 20.3422 27.5353C20.2302 27.4881 20.1288 27.4188 20.044 27.3318L9.68001 16.6978C9.49798 16.511 9.39611 16.2605 9.39611 15.9998C9.39611 15.739 9.49798 15.4885 9.68001 15.3018L20.044 4.66776C20.1288 4.58067 20.2302 4.51145 20.3422 4.46419C20.4541 4.41693 20.5745 4.39258 20.696 4.39258C20.8176 4.39258 20.9379 4.41693 21.0499 4.46419C21.1618 4.51145 21.2632 4.58067 21.348 4.66776V4.66576Z" fill="white"/>
</svg>
