<svg width="20" height="20" viewBox="0 0 20 20" fill="none" xmlns="http://www.w3.org/2000/svg">
<path d="M13.3838 17.9548C13.6181 17.7204 13.7498 17.4025 13.7498 17.0711C13.7498 16.7396 13.6181 16.4217 13.3838 16.1873L7.19627 9.99982L13.3838 3.81232C13.6115 3.57656 13.7375 3.26081 13.7346 2.93307C13.7318 2.60532 13.6003 2.2918 13.3685 2.06004C13.1368 1.82828 12.8233 1.69682 12.4955 1.69398C12.1678 1.69113 11.852 1.81712 11.6163 2.04482L4.54502 9.11607C4.31068 9.35048 4.17904 9.66836 4.17904 9.99982C4.17904 10.3313 4.31068 10.6492 4.54502 10.8836L11.6163 17.9548C11.8507 18.1892 12.1686 18.3208 12.5 18.3208C12.8315 18.3208 13.1494 18.1892 13.3838 17.9548V17.9548Z" fill="white" fill-opacity="0.5"/>
</svg>
