<svg width="20" height="20" viewBox="0 0 20 20" fill="none" xmlns="http://www.w3.org/2000/svg">
<path d="M6.61623 17.9548C6.38189 17.7204 6.25024 17.4025 6.25024 17.0711C6.25024 16.7396 6.38189 16.4217 6.61623 16.1873L12.8037 9.99982L6.61623 3.81232C6.38853 3.57656 6.26254 3.26081 6.26538 2.93307C6.26823 2.60532 6.39969 2.2918 6.63145 2.06004C6.86321 1.82828 7.17673 1.69682 7.50447 1.69398C7.83222 1.69113 8.14797 1.81712 8.38373 2.04482L15.455 9.11607C15.6893 9.35048 15.821 9.66836 15.821 9.99982C15.821 10.3313 15.6893 10.6492 15.455 10.8836L8.38373 17.9548C8.14932 18.1892 7.83143 18.3208 7.49998 18.3208C7.16852 18.3208 6.85064 18.1892 6.61623 17.9548Z" fill="#111111"/>
</svg>
